<?xml version="1.0" encoding="UTF-8" standalone="no"?>
<svg
   xmlns:dc="http://purl.org/dc/elements/1.1/"
   xmlns:cc="http://creativecommons.org/ns#"
   xmlns:rdf="http://www.w3.org/1999/02/22-rdf-syntax-ns#"
   xmlns:svg="http://www.w3.org/2000/svg"
   xmlns="http://www.w3.org/2000/svg"
   xmlns:sodipodi="http://sodipodi.sourceforge.net/DTD/sodipodi-0.dtd"
   xmlns:inkscape="http://www.inkscape.org/namespaces/inkscape"
   width="4800"
   height="2400"
   version="1.1"
   id="svg30"
   sodipodi:docname="Flag_of_Mongolia.svg"
   inkscape:version="0.92.4 (5da689c313, 2019-01-14)">
  <metadata
     id="metadata36">
    <rdf:RDF>
      <cc:Work
         rdf:about="">
        <dc:format>image/svg+xml</dc:format>
        <dc:type
           rdf:resource="http://purl.org/dc/dcmitype/StillImage" />
      </cc:Work>
    </rdf:RDF>
  </metadata>
  <defs
     id="defs34" />
  <sodipodi:namedview
     pagecolor="#ffffff"
     bordercolor="#666666"
     borderopacity="1"
     objecttolerance="10"
     gridtolerance="10"
     guidetolerance="10"
     inkscape:pageopacity="0"
     inkscape:pageshadow="2"
     inkscape:window-width="1600"
     inkscape:window-height="838"
     id="namedview32"
     showgrid="false"
     inkscape:snap-bbox="true"
     inkscape:bbox-paths="true"
     inkscape:bbox-nodes="true"
     inkscape:snap-bbox-edge-midpoints="true"
     inkscape:snap-bbox-midpoints="true"
     inkscape:object-paths="true"
     inkscape:snap-intersection-paths="true"
     inkscape:snap-smooth-nodes="true"
     inkscape:snap-object-midpoints="true"
     inkscape:snap-center="true"
     inkscape:zoom="0.125"
     inkscape:cx="2078.0057"
     inkscape:cy="911.08837"
     inkscape:window-x="-8"
     inkscape:window-y="-8"
     inkscape:window-maximized="1"
     inkscape:current-layer="g22"
     inkscape:snap-midpoints="true"
     inkscape:snap-global="true" />
  <g
     fill="#f9cf02"
     id="g22">
    <path
       style="fill:#da2032;stroke-width:5"
       inkscape:connector-curvature="0"
       id="path2"
       d="M 0,0 H 4800 V 2400 H 0 Z" />
    <path
       style="fill:#0066b3;stroke-width:5"
       inkscape:connector-curvature="0"
       id="path4"
       d="M 1600,0 H 3200 V 2400 H 1600 Z" />
    <g
       id="g1781"
       style="fill:#ffd900;fill-opacity:1"
       transform="translate(1599.998)">
      <path
         inkscape:connector-curvature="0"
         style="fill:#ffd900;fill-opacity:1;stroke-width:1.11803401"
         d="m -1239.998,1080 h 200 v 960 h -200 z"
         id="path4-4-6-3-9-4" />
      <path
         inkscape:connector-curvature="0"
         style="fill:#ffd900;fill-opacity:1;stroke-width:1.11803401"
         d="m -559.998,1080 h 200 v 960 h -200 z"
         id="path4-4-6-3-9-4-7" />
      <path
         inkscape:connector-curvature="0"
         style="fill:#ffd900;fill-opacity:1;stroke-width:0.55901802"
         d="m -999.998,1920 200,120 200,-120 z"
         id="path4-4-6-3-9-4-5-8-3" />
      <path
         inkscape:connector-curvature="0"
         style="fill:#ffd900;fill-opacity:1;stroke-width:0.45643601"
         d="m -999.998,1800 h 400 v 80 h -400 z"
         id="path4-4-6-3-9-4-5-7" />
      <path
         inkscape:connector-curvature="0"
         style="fill:#ffd900;fill-opacity:1;stroke-width:0.55901802"
         d="m -999.998,1080 200,120 200,-120 z"
         id="path4-4-6-3-9-4-5-8-3-5" />
      <path
         inkscape:connector-curvature="0"
         style="fill:#ffd900;fill-opacity:1;stroke-width:0.45643601"
         d="m -999.998,1240 h 400 v 80 h -400 z"
         id="path4-4-6-3-9-4-5-7-7" />
      <path
         style="opacity:1;fill:#ffd900;fill-opacity:1;stroke:none;stroke-width:56.61245346;stroke-linecap:square;stroke-linejoin:miter;stroke-miterlimit:4;stroke-dasharray:none;stroke-opacity:1;paint-order:normal"
         d="m -705,1384.216 c 14.88,20.22 22.928,44.664 22.968,69.768 0.03,65.176 -52.796,118.028 -117.968,118.044 a 93.99999,93.99999 0 0 0 -93.988,93.988 A 93.99999,93.99999 0 0 0 -800,1760 c 110.452,0 200,-89.544 200,-200 0,-73.424 -40.392,-140.908 -105,-175.784 z m -95,241.8 a 40,40 0 0 1 40,40 40,40 0 0 1 -40,40 40,40 0 0 1 -40,-40 40,40 0 0 1 40,-40 z"
         id="path1120-7-3-5-6-8"
         inkscape:connector-curvature="0" />
      <path
         style="opacity:1;fill:#ffd900;fill-opacity:1;stroke:none;stroke-width:56.61245346;stroke-linecap:square;stroke-linejoin:miter;stroke-miterlimit:4;stroke-dasharray:none;stroke-opacity:1;paint-order:normal"
         d="m -895,1735.784 c -14.88,-20.22 -22.928,-44.664 -22.968,-69.768 -0.03,-65.176 52.796,-118.028 117.968,-118.044 a 93.99999,93.99999 0 0 0 93.988,-93.988 A 93.99999,93.99999 0 0 0 -800,1360 c -110.452,0 -200,89.544 -200,200 0,73.424 40.392,140.908 105,175.784 z m 95,-241.8 a 40,40 0 0 1 -40,-40 40,40 0 0 1 40,-40 40,40 0 0 1 40,40 40,40 0 0 1 -40,40 z"
         id="path1120-7-3-5-6-8-9"
         inkscape:connector-curvature="0" />
      <path
         inkscape:connector-curvature="0"
         style="opacity:1;fill:#ffd900;fill-opacity:1;stroke:none;stroke-width:1.62680805;stroke-linecap:square;stroke-linejoin:miter;stroke-miterlimit:4;stroke-dasharray:none;stroke-opacity:1;paint-order:normal"
         d="m -1019.602,815.62 a 220,220 0 0 0 -0.4,4.38 220,220 0 0 0 220,220 220,220 0 0 0 220,-220 220,220 0 0 0 0,-4 240,240 0 0 1 -219.844,143.984 240,240 0 0 1 -219.764,-144.376 z"
         id="path1363-17" />
      <circle
         style="opacity:1;fill:#ffd900;fill-opacity:1;stroke:none;stroke-width:1.18313408;stroke-linecap:square;stroke-linejoin:miter;stroke-miterlimit:4;stroke-dasharray:none;stroke-opacity:1;paint-order:normal"
         id="path1363-1-5"
         cx="-799.83472"
         cy="759.99707"
         r="160" />
      <path
         inkscape:connector-curvature="0"
         style="opacity:1;fill:#ffd900;fill-opacity:1;stroke:none;stroke-width:0.73945808;stroke-linecap:square;stroke-linejoin:miter;stroke-miterlimit:4;stroke-dasharray:none;stroke-opacity:1;paint-order:normal"
         d="m -783.186,240.05 c -19.88,9.02 -27.308,25.284 -28.908,41.484 -1,13.64 5.02,29.004 5.62,42.344 0,22.956 -23.752,30.516 -23.752,63.28 0,11.26 10.4,23.668 10.4,52.892 -1.8,15.34 -10.36,18.8 -20,20 v 0 a 20,20 0 0 1 -20,-20 20,20 0 0 1 5.54,-13.76 20,20 0 0 1 2.04,-2 c 4.56,-4.6 10.82,-6.38 10.78,-18.52 0,-6.24 -4.04,-11.92 -7.9,-22.968 -3.64,-10.72 -1,-28.64 7.66,-39.22 -14,5.4 -22.628,18.82 -27.028,30.86 -4.64,14.8 -0.6,23.324 -6.96,35.624 -3.88,7.96 -8.5,11.26 -12.88,17.9 -5.18,7.24 -11.26,24.172 -11.26,32.032 v 0 a 100,100 0 0 0 100,100 100,100 0 0 0 100,-100 c 0,-7.86 -6,-24.792 -11.18,-32.032 -4.38,-6.64 -9.08,-9.94 -12.96,-17.9 -6.28,-12.3 -2.24,-20.824 -6.88,-35.624 -4.4,-12.04 -13.04,-25.456 -27.032,-30.86 8.66,10.58 11.3,28.5 7.66,39.22 -3.88,11.04 -7.96,16.72 -7.96,22.968 0,12.14 6.22,13.92 10.78,18.52 a 20,20 0 0 1 2.04,2 20,20 0 0 1 5.54,13.76 20,20 0 0 1 -20,20 c -11.06,-1.4 -19,-6.56 -20,-20 0,-38.504 16.48,-40.96 16.48,-69.452 0,-40.684 -36.484,-59.944 -36.484,-89.688 0,-10.08 2.36,-27.26 16.64,-40.86 z"
         id="path1363-1-5-5-3-9" />
    </g>
  </g>
</svg>
